<svg xmlns="http://www.w3.org/2000/svg" width="800" height="450" viewBox="0 0 800 450">
  <rect width="800" height="450" fill="#0f172a" />
  
  <!-- App UI background -->
  <rect x="50" y="50" width="700" height="350" rx="10" fill="#1e293b" />
  
  <!-- Header -->
  <rect x="50" y="50" width="700" height="60" rx="10 10 0 0" fill="#334155" />
  <text x="120" y="85" font-family="sans-serif" font-size="24" fill="#f8fafc" font-weight="bold">Herramientas SUP</text>
  
  <!-- Navigation -->
  <rect x="400" y="65" width="300" height="30" rx="5" fill="#475569" />
  <text x="440" y="85" font-family="sans-serif" font-size="14" fill="#f1f5f9">Procesador LIS</text>
  <text x="560" y="85" font-family="sans-serif" font-size="14" fill="#94a3b8">Gestor PDF</text>
  <text x="650" y="85" font-family="sans-serif" font-size="14" fill="#94a3b8">Utilidades</text>
  
  <!-- Tool cards -->
  <rect x="70" y="130" width="200" height="250" rx="5" fill="#334155" />
  <rect x="290" y="130" width="200" height="250" rx="5" fill="#334155" />
  <rect x="510" y="130" width="200" height="250" rx="5" fill="#334155" />
  
  <!-- Card 1 content -->
  <rect x="70" y="130" width="200" height="60" rx="5 5 0 0" fill="#3b82f6" />
  <text x="170" y="165" font-family="sans-serif" font-size="16" fill="#ffffff" text-anchor="middle" font-weight="bold">Procesador LIS</text>
  <rect x="90" y="210" width="160" height="120" rx="5" fill="#1e293b" />
  <rect x="100" y="220" width="140" height="10" fill="#475569" />
  <rect x="100" y="240" width="120" height="10" fill="#475569" />
  <rect x="100" y="260" width="140" height="10" fill="#475569" />
  <rect x="100" y="280" width="80" height="10" fill="#475569" />
  <rect x="100" y="300" width="100" height="10" fill="#475569" />
  <rect x="110" y="340" width="120" height="25" rx="5" fill="#3b82f6" />
  <text x="170" y="356" font-family="sans-serif" font-size="12" fill="#ffffff" text-anchor="middle">Procesar</text>
  
  <!-- Card 2 content -->
  <rect x="290" y="130" width="200" height="60" rx="5 5 0 0" fill="#8b5cf6" />
  <text x="390" y="165" font-family="sans-serif" font-size="16" fill="#ffffff" text-anchor="middle" font-weight="bold">Gestor PDF</text>
  <rect x="320" y="210" width="140" height="60" rx="5" fill="#1e293b" stroke="#475569" stroke-width="1" stroke-dasharray="5,5" />
  <text x="390" y="245" font-family="sans-serif" font-size="12" fill="#94a3b8" text-anchor="middle">Arrastra PDFs aquí</text>
  <rect x="320" y="280" width="140" height="30" rx="5" fill="#1e293b" />
  <rect x="325" y="285" width="20" height="20" rx="3" fill="#475569" />
  <rect x="350" y="290" width="105" height="10" fill="#475569" />
  <rect x="330" y="340" width="120" height="25" rx="5" fill="#8b5cf6" />
  <text x="390" y="356" font-family="sans-serif" font-size="12" fill="#ffffff" text-anchor="middle">Fusionar</text>
  
  <!-- Card 3 content -->
  <rect x="510" y="130" width="200" height="60" rx="5 5 0 0" fill="#10b981" />
  <text x="610" y="165" font-family="sans-serif" font-size="16" fill="#ffffff" text-anchor="middle" font-weight="bold">Utilidades</text>
  <circle cx="550" cy="220" r="25" fill="#1e293b" />
  <circle cx="610" cy="220" r="25" fill="#1e293b" />
  <circle cx="670" cy="220" r="25" fill="#1e293b" />
  <circle cx="550" cy="290" r="25" fill="#1e293b" />
  <circle cx="610" cy="290" r="25" fill="#1e293b" />
  <circle cx="670" cy="290" r="25" fill="#1e293b" />
  <rect x="550" y="340" width="120" height="25" rx="5" fill="#10b981" />
  <text x="610" y="356" font-family="sans-serif" font-size="12" fill="#ffffff" text-anchor="middle">Seleccionar</text>
</svg> 